<?xml version="1.0" encoding="utf-8"?>
<!-- Generator: Adobe Illustrator 24.3.0, SVG Export Plug-In . SVG Version: 6.00 Build 0)  -->
<svg version="1.1" id="Capa_1" xmlns="http://www.w3.org/2000/svg" xmlns:xlink="http://www.w3.org/1999/xlink" x="0px" y="0px"
	 viewBox="0 0 600 600" style="enable-background:new 0 0 600 600;" xml:space="preserve">
<style type="text/css">
	.st0{fill:#212121;}
	.st1{fill:#424242;}
	.st2{fill:#0D6EFD;}
	.st3{fill:#22C55E;}
	.st4{fill:#222221;}
	.st5{fill:#FFFFFF;}
	.st6{fill:#EF4444;}
</style>
<g>
	<path class="st0" d="M586.3,414.5c0,15.8,0.1,31.4,0.1,47.1c0,16.8-12.5,29.4-29.5,29.4c-63.4,0-126.8,0-190.3,0
		c-44.5,0-89.2,0-133.7,0c-62.8,0-125.6,0-188.4,0c-19.1,0-31.2-11.9-31.2-31.2c0-15.2,0.1-30.2,0.1-45.4c12.8,0,25.4,0,38.2,0
		c2.4,0,4.8,0.1,7.2,0.1c138.6,0,277.2,0,415.9,0c24.5,0,48.9,0,73.4-0.1C560.9,414.5,573.7,414.5,586.3,414.5z M519.6,452.8
		c0-5.1-4.2-9.4-9.4-9.5c-5.1-0.1-9.5,4.1-9.7,9.2c-0.1,5.4,4.3,9.9,9.7,9.9C515.4,462.4,519.6,458.1,519.6,452.8z M548.3,452.9
		c0-5.1-4.2-9.4-9.3-9.5s-9.5,4.1-9.8,9.2c-0.2,5.4,4.3,9.9,9.5,9.9C544,462.4,548.3,458.1,548.3,452.9z"/>
	<path class="st1" d="M51.8,414.6c-12.8,0-25.4,0-38.2,0c0-28.1-0.1-56.1-0.1-84.2c0-60,0-120.2,0-180.2c0-19.8,11.7-31.6,31.5-31.6
		c77,0,154,0,231,0c-6.1,12.8-12.2,25.5-18.4,38.3c-64.2,0-128.6-0.1-192.8-0.1c-10.1,0-13.1,3-13.1,13.1c0,46.9,0,93.9,0,140.8
		C51.7,345.4,51.7,380,51.8,414.6z"/>
	<path class="st2" d="M257.6,156.9c6.1-12.8,12.2-25.5,18.4-38.3c7.3-8,14.4-16,21.7-24.1c3.6,7.6,7.2,15.3,10.6,23
		c4.2,9.3,8.6,12.4,14.7,9.5c6-2.7,6.8-7.8,3-16.9c-3.9-9.4-7.6-19.1-11.5-28.5c21.1-12.5,43.8-19.8,68.5-20.4c1,0,2,0.1,3,0.1
		c0,44.5,0,88.9,0,133.4c-1.2,0.7-2.3,1.6-3.6,2.1c-38,20.3-76,40.5-114,60.8c-3.8-9.1-8.4-18-11.2-27.5
		C249.8,206,250.9,181.4,257.6,156.9z"/>
	<path class="st3" d="M385.9,194.9c0-44.5,0-88.9,0-133.4c43.1,0.4,77.9,17.8,105.2,51.1c1.7,2,3.2,4.1,4.8,6.1
		c6.2,12.8,12.3,25.5,18.5,38.3c1.7,12.7,3.3,25.4,5,38.1C475,194.9,430.4,194.9,385.9,194.9z"/>
	<path class="st1" d="M514.4,156.8c-6.2-12.8-12.3-25.5-18.5-38.3c20.6,0,41.4-0.1,62.1,0c15.6,0.1,28.4,12.4,28.5,27.9
		c0.1,89.3,0,178.7,0,268c-12.8,0-25.4,0-38.2,0c0-19.7,0.1-39.4,0.1-59.1c0-62.1,0-124.1,0-186.1c0-9.4-3.1-12.7-12.4-12.7
		C528.7,156.7,521.5,156.8,514.4,156.8z"/>
	<path class="st0" d="M366.8,529.3c16.8,0.7,28.5,12.8,28.6,29.6c0,5.1,0,10.4,0,15.5c-0.1,9.1-3.2,12.2-12.3,12.2
		c-46.9,0-93.8,0-140.7,0c-9,0-17.9,0.1-26.9,0c-7.6-0.1-11-3.5-11.1-10.9c-0.1-5.6,0-11.1,0-16.7c0.1-16.7,11.9-28.9,28.6-29.7
		C277.7,529.3,322.3,529.3,366.8,529.3z"/>
	<path class="st1" d="M366.8,529.3c-44.5,0-89.2,0-133.7,0c0-12.8,0-25.4,0-38.2c44.5,0,89.2,0,133.7,0
		C366.8,503.8,366.8,516.6,366.8,529.3z"/>
	<path class="st4" d="M314.5,81.7c3.8,9.5,7.5,19.1,11.5,28.5c3.8,9.1,3,14.1-3,16.9c-6.1,2.7-10.5-0.2-14.7-9.5
		c-3.5-7.8-7-15.4-10.6-23c-4.2-10.3-8.2-20.6-12.8-30.7c-0.7-1.4-3.9-2.4-6-2.5c-11.1-0.2-22.2-0.1-33.4-0.1
		c-8.1,0-12.4-3.5-12.3-9.7c0.1-6.2,4.3-9.4,12.5-9.4c13.5,0,27,0,40.5,0c9.7,0,11.1,1.2,15,10.4C305.5,62.3,310.1,71.9,314.5,81.7z
		"/>
	<path class="st0" d="M175.8,13.4c12.1,0,24.2,0,36.3,0c7.2,0,11.3,3.5,11.5,9.3c0.1,6.1-4.2,9.7-11.6,9.7c-24,0-48,0-72.1,0
		c-7.5,0-11.8-3.6-11.7-9.7c0.1-6,4.3-9.4,11.9-9.4C152,13.4,163.9,13.4,175.8,13.4z"/>
	<path class="st0" d="M176,42.1c11.9,0,23.9,0,35.7,0c7.6,0,11.8,3.5,11.8,9.5c0,6-4.2,9.5-11.8,9.5c-24,0-48,0-72.1,0
		c-7.4,0-11.7-3.8-11.6-9.8c0.1-5.8,4.3-9.2,11.5-9.2C151.7,42.1,163.9,42.1,176,42.1z"/>
	<path class="st0" d="M176,70.7c11.9,0,23.9,0,35.7,0c7.6,0,11.8,3.5,11.8,9.4c0,6.1-4.2,9.5-11.8,9.5c-24,0-48,0-72.1,0
		c-7.4,0-11.7-3.7-11.6-9.8c0.1-5.8,4.3-9.2,11.5-9.3C151.7,70.7,163.8,70.7,176,70.7z"/>
	<path class="st5" d="M514.4,156.8c7.2,0,14.3-0.1,21.5-0.1c9.3,0,12.4,3.2,12.4,12.7c0,62.1,0,124.1,0,186.1
		c0,19.7-0.1,39.4-0.1,59.1c-24.5,0-48.9,0.1-73.4,0.1c-138.6,0-277.2,0-415.9,0c-2.4,0-4.8,0-7.2-0.1c0-34.6-0.1-69.2-0.1-103.8
		c0-46.9,0-93.9,0-140.8c0-10.1,3-13.1,13.1-13.1c64.2,0,128.4,0.1,192.8,0.1c-6.6,24.5-7.6,49.1-0.4,73.5
		c2.9,9.4,7.4,18.3,11.2,27.5c1.1,2.1,1.9,4.3,3.2,6.3c33.9,55.9,102.8,79,163.5,55.1c55.3-21.8,85.2-75.2,84.3-124.3
		C517.8,182.2,516.1,169.6,514.4,156.8z M280.9,376.3c0-21.7,0-43.3,0-65.1c0-12.9-7.9-20.6-20.9-20.8c-1.8,0-3.6,0-5.4,0
		c-13.8,0.1-21.5,7.5-21.5,21.4c0,21.5,0,43,0,64.5c-3.2,0-6.3,0-9.5,0c0-37.4,0-74.8,0-112.2c0-13.7-7.8-21.2-21.5-21.4
		c-1.4,0-2.7,0-4.2,0c-14.7,0-22.1,7.3-22.1,22c0,37.2,0,74.4,0,111.6c-3.2,0-6.3,0-9.5,0c0-28.1,0-56.1,0-84.2
		c0-12.9-7.9-20.6-20.9-20.8c-1.8,0-3.6,0-5.4,0c-13.8,0-21.5,7.5-21.5,21.4c0,27.8,0,55.7,0,83.6c-17.4,1-19.1-0.6-19.1-17.7
		c0-44.4,0-88.7,0-133.1c0-7-3.7-11.3-9.4-11.3c-5.8-0.1-9.7,4.2-9.7,11.2c0,47.4-0.1,94.7,0,142c0,15.6,12.5,28.2,28.2,28.2
		c63.4,0.1,126.9,0.1,190.3,0c6.6,0,10.7-3.9,10.6-9.5c0-5.6-4.2-9.3-10.7-9.5C292.8,376.3,286.8,376.3,280.9,376.3z"/>
	<path class="st2" d="M519.6,452.8c0,5.1-4.3,9.4-9.4,9.5c-5.4,0.1-9.8-4.5-9.7-9.9c0.1-5.1,4.5-9.3,9.7-9.2
		C515.4,443.4,519.6,447.7,519.6,452.8z"/>
	<path class="st6" d="M548.3,452.9c0,5.1-4.3,9.4-9.4,9.4c-5.4,0-9.8-4.5-9.5-9.9c0.2-5.1,4.7-9.3,9.8-9.2
		C544.1,443.5,548.4,447.8,548.3,452.9z"/>
	<path class="st6" d="M519.5,195c0.8,49.2-29.1,102.5-84.3,124.3c-60.9,24-129.6,0.8-163.5-55.1c-1.2-2-2.1-4.2-3.2-6.3
		c38-20.3,76-40.5,114-60.8c1.2-0.6,2.4-1.4,3.6-2.1C430.4,194.9,475,194.9,519.5,195z"/>
	<path class="st0" d="M166.3,376.3c3.2,0,6.3,0,9.5,0c15.9,0,31.9,0,47.7,0c3.2,0,6.3,0,9.5,0c15.9,0,31.9,0,47.7,0
		c6,0.1,11.9,0.1,17.9,0.2c6.6,0.1,10.7,3.9,10.7,9.5c0,5.6-4.2,9.5-10.6,9.5c-63.4,0-126.9,0.1-190.3,0
		c-15.6,0-28.1-12.5-28.2-28.2c-0.1-47.4-0.1-94.7,0-142c0-6.9,3.8-11.2,9.7-11.2c5.7,0.1,9.4,4.3,9.4,11.3c0,44.4,0,88.7,0,133.1
		c0,17.1,1.7,18.6,19.1,17.7C134.4,376.3,150.4,376.3,166.3,376.3z"/>
	<path class="st2" d="M223.6,376.3c-15.9,0-31.9,0-47.7,0c0-37.2,0-74.4,0-111.6c0-14.6,7.4-22,22.1-22c1.4,0,2.7,0,4.2,0
		c13.7,0.1,21.5,7.6,21.5,21.4C223.6,301.5,223.6,338.8,223.6,376.3z"/>
	<path class="st6" d="M166.3,376.3c-15.9,0-31.9,0-47.7,0c0-27.8,0-55.7,0-83.6c0-13.8,7.6-21.2,21.5-21.4c1.8,0,3.6,0,5.4,0
		c13,0.1,20.9,7.9,20.9,20.8C166.3,320.2,166.3,348.3,166.3,376.3z"/>
	<path class="st3" d="M280.9,376.3c-15.9,0-31.9,0-47.7,0c0-21.5,0-43,0-64.5c0-13.8,7.5-21.2,21.5-21.4c1.8,0,3.6,0,5.4,0
		c13,0.1,20.9,7.8,20.9,20.8C280.9,332.9,280.9,354.6,280.9,376.3z"/>
</g>
</svg>
