<?xml version="1.0" encoding="utf-8"?>
<!-- Generator: Adobe Illustrator 24.3.0, SVG Export Plug-In . SVG Version: 6.00 Build 0)  -->
<svg version="1.1" id="Capa_1" xmlns="http://www.w3.org/2000/svg" xmlns:xlink="http://www.w3.org/1999/xlink" x="0px" y="0px"
	 viewBox="0 0 600 600" style="enable-background:new 0 0 600 600;" xml:space="preserve">
<style type="text/css">
	.st0{fill:#EF4444;}
	.st1{fill:#22C55E;}
</style>
<g>
	<g>
		<path class="st0" d="M566.4,203.1c-23,69.9-108.5,113.4-186.3,83.7c-74.3-28.5-112.9-114.3-82.7-189.3
			C326.5,25,408.7-9.8,478.4,14.3C563.5,43.6,595.7,137.6,566.4,203.1z M408.8,142.5c-3.6,0.9-5.2,1-6.6,1.7
			c-14.4,6.5-28.7,12.8-43,19.6c-7.5,3.5-8.3,5.8-5.3,13.3c1.9,5.1,4.1,10,6.5,14.8c4.3,8.5,5.8,9.3,14.6,5.3
			c15.5-7,30.8-14.5,48.6-22.8c0.8,4,0.9,6.6,1.8,8.7c6.2,14,12.4,28,19,41.8c3.4,7.3,5.4,7.8,12.8,4.8c6-2.5,11.8-5.2,17.7-8
			c4.4-2.1,5.8-5.6,3.9-10.1c-3-7.1-6-14.4-9.1-21.5c-4.3-9.6-8.5-19.2-13.5-30c2.8-0.8,5.1-1.2,7-2.1c14-6.2,28-12.4,41.8-19
			c7.1-3.4,7.9-5.4,4.9-12.8c-2.3-5.8-5.2-11.4-7.6-17.1c-2.2-5.3-6.1-6.3-11-4.3c-9.3,3.9-18.6,7.9-28,11.9
			c-7.3,3.2-14.4,6.7-21.8,10.1c-1.2-2.6-1.9-4.1-2.7-5.7c-6.6-14.5-13.3-29-19.8-43.6c-2.6-5.7-6.3-7.1-11.9-4.7
			c-4.8,2.1-9.6,3.9-14.2,6.2c-9.8,4.8-10.7,6.5-6.2,16.4C393.6,110.8,400.8,125.8,408.8,142.5z"/>
	</g>
	<g>
		<path class="st1" d="M17.1,439.9C-12.5,329.6,53,216.3,163.3,186.8S387,222.6,416.5,333.1c29.5,110.3-36,223.6-146.3,253.2
			C159.8,615.6,46.8,550.3,17.1,439.9z M278.1,241.7c-0.5,0.9-1,1.6-1.4,2.3c-32.9,58.9-65.8,117.7-98.7,176.6
			c-1.3,2.3-1.3,2.3-3.5,0.9c-18.3-10.9-36.6-21.9-54.9-32.8c-2.1-1.3-2.1-1.3-3.2,0.8c-10.6,18.8-21.2,37.6-31.9,56.3
			c-0.8,1.4-0.6,2.1,0.8,3c38.3,22.8,76.5,45.7,114.9,68.6c2.3,1.4,2.3,1.3,3.6-1c11-19.7,21.9-39.2,32.9-58.9
			c33.3-59.6,66.6-119,99.8-178.6c0.3-0.5,0.6-1.2,0.9-1.9C317.6,265.2,297.9,253.6,278.1,241.7z"/>
	</g>
</g>
</svg>
