<?xml version="1.0" encoding="utf-8"?>
<!-- Generator: Adobe Illustrator 24.3.0, SVG Export Plug-In . SVG Version: 6.00 Build 0)  -->
<svg version="1.1" id="Capa_1" xmlns="http://www.w3.org/2000/svg" xmlns:xlink="http://www.w3.org/1999/xlink" x="0px" y="0px"
	 viewBox="0 0 600 600" style="enable-background:new 0 0 600 600;" xml:space="preserve">
<style type="text/css">
	.st0{fill:#E1574C;}
	.st1{fill:#B43629;}
	.st2{fill:#FEFCFC;}
	.st3{fill:#FEFCFB;}
	.st4{fill:#E1584D;}
	.st5{fill:#21A366;}
	.st6{fill:#33C481;}
	.st7{fill:#185C37;}
	.st8{fill:#107C41;}
	.st9{fill:#FFFFFF;}
</style>
<g>
	<path class="st0" d="M510.5,444.7c-79.7-23.1-159.4-46.3-239.1-69.4c0.1,0,0.1,0,0.2-0.1c0,0,0.1-0.1,0.1-0.1
		c-0.4-0.3-0.7-0.7-1.2-1c-7.5-5.3-10.6-13.8-8-22.6c25.9-89.1,51.7-178.3,77.6-267.4c2.6-9,9.9-14.5,19.3-14.8c0.3,0,0.6-0.3,1-0.5
		C416.2,85,472,101.2,527.8,117.4c-0.3,1-0.6,1.9-0.8,2.9c-6.2,21.3-12.4,42.6-18.6,64c-3.1,10.8,2.8,21.8,13.5,24.9
		c21.4,6.3,42.9,12.5,64.4,18.7c0.8,0.2,1.7,0.1,2.5,0.1c-0.1,0.8-0.1,1.7-0.3,2.5c-19.2,66.1-38.3,132.1-57.5,198.2
		c-2.8,9.7-9.5,15-19.5,15.6C511.1,444.2,510.8,444.5,510.5,444.7z M413.5,260.7c-2.1,7.3-4.3,14.7-6.4,22c-1.2,4.2,0.2,7.1,4.4,8.4
		c5.8,1.8,11.7,3.6,17.7,4.9c9.1,1.9,17.3-0.1,24.1-6.7c5.7-5.5,8-12.5,9.3-20.1c2-12.4-3.5-23.8-14.9-28.9
		c-6-2.7-12.4-4.3-18.7-6.2c-4.9-1.5-7.8,0.1-9.2,5C417.7,246.4,415.6,253.5,413.5,260.7z M374.2,259.5c3.2,0.9,6.1,1.9,9.1,2.6
		c10,2.3,18.2-1.6,22.3-11c5-11.4-0.1-22.4-9.8-26.1c-4.8-1.8-9.7-3.1-14.6-4.6c-5.4-1.6-7.9-0.3-9.4,5.1
		c-4.2,14.3-8.3,28.6-12.4,42.9c-0.3,1-0.5,1.9-0.6,2.9c-0.3,3,1.4,5.3,4.3,6c2.7,0.7,5.4-0.6,6.6-3.2c0.6-1.3,1-2.6,1.4-4
		C372.1,266.7,373.1,263.3,374.2,259.5z M486.9,263c4.4,1.3,8.6,2.5,12.8,3.7c3.1,0.9,5.6-0.6,6.6-3.8c1-3.3-0.2-6.2-3.2-7.1
		c-6.1-1.9-12.2-3.6-18.4-5.3c-2.5-0.7-5,0.4-6.3,2.7c-0.5,0.8-0.9,1.8-1.1,2.7c-4.2,14.4-8.4,28.8-12.6,43.3
		c-0.2,0.8-0.4,1.5-0.5,2.3c-0.4,3.3,1.2,5.8,4.2,6.4c2.8,0.6,5.5-1,6.4-4c1.2-3.6,2.2-7.3,3.2-10.9c0.2-0.7,0.4-1.4,0.6-1.9
		c0.4,0,0.6-0.1,0.7,0c3.3,0.9,6.6,1.9,10,2.8c3.6,1,6.3-0.5,7.2-4c0.9-3.4-0.5-5.9-4-7c-2-0.6-4-1.2-5.9-1.7
		c-1.5-0.4-3-0.9-4.6-1.3C483.7,274.1,485.3,268.7,486.9,263z"/>
	<path class="st1" d="M528.2,117.5c0.3,0.7,0.4,1.4,0.8,2c19.7,35.6,39.4,71.3,59.1,106.9c0.3,0.5,0.5,1.1,0.8,1.6
		c-0.8,0-1.7,0.1-2.5-0.1c-21.5-6.2-42.9-12.4-64.4-18.7c-10.7-3.1-16.6-14.1-13.5-24.9c6.2-21.3,12.4-42.7,18.6-64
		c0.3-1,0.6-1.9,0.8-2.9C527.9,117.4,528,117.5,528.2,117.5z"/>
	<path class="st2" d="M413.5,260.7c2.1-7.1,4.1-14.3,6.2-21.4c1.4-4.9,4.3-6.5,9.2-5c6.3,1.9,12.7,3.6,18.7,6.2
		c11.4,5.1,16.9,16.5,14.9,28.9c-1.2,7.6-3.6,14.6-9.3,20.1c-6.8,6.6-15,8.6-24.1,6.7c-6-1.3-11.8-3.1-17.7-4.9
		c-4.2-1.3-5.6-4.2-4.4-8.4C409.2,275.4,411.4,268,413.5,260.7z M420.7,281.6c3.4,1,6.5,2.1,9.8,2.8c6.5,1.4,11.6-1,15.2-6.5
		c3.1-4.7,4.4-10.1,4.1-15.7c-0.2-3.2-1.3-6.1-3.5-8.5c-4.2-4.5-10-5.4-15.5-6.9C427.4,258.6,424,270.2,420.7,281.6z"/>
	<path class="st3" d="M374.2,259.5c-1.1,3.8-2.1,7.2-3.1,10.7c-0.4,1.3-0.8,2.7-1.4,4c-1.2,2.6-3.8,3.9-6.6,3.2
		c-2.9-0.7-4.6-3-4.3-6c0.1-1,0.3-2,0.6-2.9c4.1-14.3,8.3-28.6,12.4-42.9c1.6-5.3,4-6.7,9.4-5.1c4.9,1.5,9.9,2.8,14.6,4.6
		c9.6,3.7,14.8,14.7,9.8,26.1c-4.1,9.4-12.3,13.3-22.3,11C380.4,261.4,377.5,260.4,374.2,259.5z M377.4,249c2.6,0.8,5.1,1.5,7.6,2.2
		c4.3,1.2,8.1-0.9,9.8-5.5c1.7-4.4,0.3-9.1-3.5-10.8c-2.8-1.2-5.9-1.8-9-2.7C380.6,237.8,379,243.3,377.4,249z"/>
	<path class="st2" d="M486.9,263c-1.7,5.7-3.2,11.1-4.9,16.8c1.6,0.5,3.1,0.9,4.6,1.3c2,0.6,4,1.1,5.9,1.7c3.5,1.1,5,3.6,4,7
		c-0.9,3.5-3.6,5-7.2,4c-3.3-0.9-6.6-1.9-10-2.8c-0.1,0-0.3,0-0.7,0c-0.2,0.6-0.4,1.2-0.6,1.9c-1.1,3.6-2.1,7.3-3.2,10.9
		c-1,3.1-3.7,4.6-6.4,4c-3-0.6-4.6-3.1-4.2-6.4c0.1-0.8,0.3-1.6,0.5-2.3c4.2-14.4,8.4-28.8,12.6-43.3c0.3-0.9,0.6-1.9,1.1-2.7
		c1.3-2.3,3.8-3.4,6.3-2.7c6.1,1.7,12.3,3.5,18.4,5.3c3,0.9,4.2,3.9,3.2,7.1c-1,3.2-3.5,4.7-6.6,3.8
		C495.5,265.5,491.3,264.3,486.9,263z"/>
	<path class="st4" d="M420.7,281.6c3.3-11.5,6.7-23,10.1-34.8c5.5,1.6,11.3,2.4,15.5,6.9c2.2,2.4,3.3,5.3,3.5,8.5
		c0.3,5.7-1,11-4.1,15.7c-3.6,5.5-8.7,7.9-15.2,6.5C427.3,283.7,424.1,282.6,420.7,281.6z"/>
	<path class="st0" d="M377.4,249c1.7-5.8,3.3-11.2,4.9-16.8c3.1,0.9,6.2,1.5,9,2.7c3.9,1.7,5.2,6.4,3.5,10.8
		c-1.8,4.6-5.5,6.7-9.8,5.5C382.4,250.5,380,249.8,377.4,249z"/>
</g>
<g>
	<path class="st5" d="M222.2,175.9l-121.7,24.8c-7.8,1.6-13.6,9.6-12.1,17.4l13,63.8l158.5,78.9l130.9-56.5l-15.9-78.1L222.2,175.9z
		"/>
	<path class="st6" d="M344,151.1l-121.7,24.8l15.9,78.1l136.7-27.9L362,163C360.4,155.2,352.4,149.3,344,151.1z"/>
	<path class="st7" d="M101.4,281.9l44.7,219.4c1.6,7.8,9.6,13.6,17.4,12.1l244.1-49.8c7.8-1.6,13.6-9.6,12.1-17.4l-13-63.8
		L101.4,281.9z"/>
	<path class="st8" d="M101.4,281.9L238.2,254l15.9,78.1L117.4,360L101.4,281.9z"/>
	<path d="M206,262.6l35.4,173.8c0.2,7.4-5.3,14-12.5,15.4L139.8,470l-41-201.2l89.2-18.2C195.8,249.1,204.3,254.1,206,262.6z"/>
	<path d="M212.5,261.3l32.3,158.2c2.4,11.7-5.4,23.5-17.1,25.9l-89.2,18.2l-41-201.2l89.2-18.2C198.4,241.8,210.1,249.5,212.5,261.3
		z"/>
	<path d="M206,262.6l32.3,158.2c1.6,7.8-3.5,16.3-11.3,17.9L137.1,457L98.8,268.9l89.2-18.2C195.8,249.1,204.3,254.1,206,262.6z"/>
	<path d="M199.5,263.9l32.3,158.2c1.6,7.8-3.5,16.3-11.3,17.9l-83.3,17L98.8,268.9l82.7-16.9C189.3,250.4,197.8,255.5,199.5,263.9z"
		/>
	<path class="st8" d="M29.1,283.1l151.7-30.9c7.8-1.6,16.3,3.5,17.9,11.3l31.1,152.3c1.6,7.8-3.5,16.3-11.3,17.9L66.2,464.7
		c-7.7,2.2-15.4-2.3-17.5-9.3L17.2,301.1C15.6,293.3,20.7,284.8,29.1,283.1z"/>
	<path class="st9" d="M89.7,417.2l21.8-56l-39.4-43.5l23.4-4.8l22.6,27.9c1,1.8,2.9,4.2,4.6,5.8c0.8-2.9,1-5,1.8-7.8l10.6-34.7
		l21.5-4.4l-19.9,55.6l40.7,43.2l-22.8,4.6l-25.3-30.8c-0.9-1.2-2-3-2.9-4.2c-0.4,1.4-0.6,3.5-1,5l-11.8,38.4L89.7,417.2L89.7,417.2
		z"/>
	<path class="st8" d="M254.1,332.1l136.7-27.9l15.9,78.1L270,410.3L254.1,332.1z"/>
</g>
</svg>
