<?xml version="1.0" encoding="utf-8"?>
<!-- Generator: Adobe Illustrator 24.3.0, SVG Export Plug-In . SVG Version: 6.00 Build 0)  -->
<svg version="1.1" id="Capa_1" xmlns="http://www.w3.org/2000/svg" xmlns:xlink="http://www.w3.org/1999/xlink" x="0px" y="0px"
	 viewBox="0 0 600 600" style="enable-background:new 0 0 600 600;" xml:space="preserve">
<style type="text/css">
	.st0{fill:#EAE1CF;}
	.st1{fill:#EF4444;}
	.st2{fill:#E55361;}
	.st3{fill:#FEFAF0;}
	.st4{fill:#C7BFB0;}
	.st5{fill:#923738;}
	.st6{fill:#933839;}
	.st7{fill:#CAC1B2;}
	.st8{fill:#C9C0B1;}
</style>
<g>
	<path class="st0" d="M105.6,217.7c0.1-2,0.2-4,0.2-6c0-41.7,0-83.4,0-125c0-20.4,13.5-33.9,33.7-33.9c84.8,0,169.7,0,254.5,0
		c1.7,0,3.4,0.6,5.1,0.9c-0.4,1.7-1.1,3.5-1.1,5.2c-0.1,34.6,0,69.2,0,103.9c-38,0-76,0.1-114,0.1c-24.3,0-48.7,0.1-73-0.1
		c-3.9,0-5.4,1.1-5.1,5.1c0.3,5.3,0.4,10.7,0,16c-0.4,4.9,1.3,6.2,6.1,6.1c45.2-0.2,90.4-0.1,135.5-0.1c15,0,30-0.2,45,0.1
		c4.5,0.1,5.8-1.4,5.6-5.7c-0.3-7.2-0.1-14.3,0-21.5c0.7,0,1.3,0.1,2,0.1c1.1,0.7,2.1,1.6,3.3,2.1c33.6,16.8,67.3,33.7,100.9,50.5
		c1.2,0.6,2.5,0.9,3.7,1.4c0.1,0.3,0.3,0.6,0.4,0.9c0,17.1,0,34.2-0.1,51.3c-1.2,1.3-2.2,2.9-3.6,3.9
		c-29.6,20.7-59.2,41.4-88.8,62.1c-35.3,24.7-70.6,49.4-105.9,74.2c-3.5-1.2-7.4-1.6-10.3-3.6c-48.6-33.7-97-67.6-145.5-101.5
		c-16.2-11.4-32.4-22.8-48.6-34.3C105.7,252.4,105.7,235,105.6,217.7z M302.1,258.9c30.3,0,60.7-0.1,91,0.1c3.9,0,5.4-1.1,5.1-5.1
		c-0.3-5.3-0.1-10.7-0.1-16c0.1-6.9,0.1-6.9-7.1-6.9c-43.8,0-87.7,0-131.5,0c-16,0-32,0.1-48-0.1c-4.1,0-5.8,1.2-5.6,5.4
		c0.3,5.7,0.3,11.4,0,17c-0.3,4.3,1.1,5.7,5.6,5.7C241.7,258.8,271.9,258.9,302.1,258.9z M302.1,299.9c-30.2,0-60.3,0.1-90.5-0.1
		c-4.5,0-5.8,1.4-5.6,5.7c0.3,5.1,0.1,10.3,0.1,15.5c0,6.9,0,6.9,7,6.9c59.7,0,119.4,0,179,0c1.3,0,2.8,0.3,4-0.2
		c1-0.5,2.4-1.8,2.4-2.8c0.1-6.5-0.5-13-0.2-19.5c0.2-4.5-1.3-5.6-5.7-5.6C362.4,300,332.2,299.9,302.1,299.9z"/>
	<path class="st1" d="M105.8,269.8c16.2,11.4,32.3,22.9,48.6,34.3c48.4,33.9,96.9,67.8,145.5,101.5c2.9,2,6.9,2.4,10.3,3.6
		c1.1,1,2.1,2.1,3.3,3c16.3,11.6,32.6,23,48.8,34.6c42,29.9,84,59.8,125.9,89.7c4.5,3.2,8.7,7,13,10.5c-1.8,0-3.7,0.1-5.5,0.1
		c-133.8,0-267.6-0.2-401.4,0.2c-16.5,0-34.6-11.8-34.4-34.3c0.5-89.5,0.2-179,0.3-268.5c0-1.9,1.2-3.8,1.9-5.7
		c0.2,0.4,0.4,1,0.7,1.3C77,249.9,91.4,259.8,105.8,269.8z"/>
	<path class="st2" d="M501.1,546.9c-4.3-3.5-8.5-7.2-13-10.5c-41.9-30-83.9-59.8-125.9-89.7c-16.3-11.6-32.6-23.1-48.8-34.6
		c-1.2-0.9-2.2-2-3.3-3c35.3-24.7,70.6-49.5,105.9-74.2c29.6-20.7,59.2-41.3,88.8-62.1c1.4-1,2.4-2.6,3.6-3.9c1.3-0.4,2.9-0.6,4-1.4
		c13.6-9.5,27.2-19.1,40.8-28.7c0.3,1.5,1,3,1,4.5c0,90.5,0.1,181,0,271.4c0,18.7-13.3,32-32.1,32.2
		C515.1,547.1,508.1,547,501.1,546.9z"/>
	<path class="st3" d="M400.2,162.9c-0.7,0-1.3-0.1-2-0.1c0,0,0,0,0,0c0-34.6,0-69.2,0-103.9c0-1.7,0.7-3.5,1.1-5.2
		c3.3,3.2,6.7,6.4,10,9.7c31.8,31.8,63.6,63.5,95.3,95.3c1.3,1.3,2.3,2.7,3.4,4.1C472.1,162.8,436.1,162.8,400.2,162.9z"/>
	<path class="st4" d="M400.2,162.9c36,0,71.9-0.1,107.9-0.1c0,18,0,36.1,0,54.1c-1.2-0.5-2.5-0.8-3.7-1.4
		c-33.6-16.8-67.3-33.6-100.9-50.5C402.3,164.4,401.3,163.6,400.2,162.9z"/>
	<path class="st5" d="M553.1,238.9c-13.6,9.6-27.1,19.2-40.8,28.7c-1.1,0.8-2.6,0.9-4,1.4c0-17.1,0-34.2,0.1-51.3
		c5.8,0,11.7-0.4,17.4,0.2C539.1,219.3,548.1,226.7,553.1,238.9z"/>
	<path class="st6" d="M105.8,269.8c-14.4-9.9-28.7-19.9-43.1-29.9c-0.4-0.3-0.5-0.8-0.7-1.3c2.4-12.5,16.9-20.4,26.8-20.8
		c5.6-0.2,11.3-0.1,16.9-0.2C105.7,235,105.7,252.4,105.8,269.8z"/>
	<path class="st7" d="M302.1,258.9c-30.2,0-60.3-0.1-90.5,0.1c-4.5,0-5.8-1.3-5.6-5.7c0.3-5.6,0.3-11.3,0-17
		c-0.2-4.2,1.5-5.5,5.6-5.4c16,0.2,32,0.1,48,0.1c43.8,0,87.7,0,131.5,0c7.2,0,7.1,0,7.1,6.9c-0.1,5.3-0.2,10.7,0.1,16
		c0.2,4-1.2,5.1-5.1,5.1C362.7,258.8,332.4,258.9,302.1,258.9z"/>
	<path class="st7" d="M302.1,299.9c30.2,0,60.3,0.1,90.5-0.1c4.4,0,5.9,1.1,5.7,5.6c-0.3,6.5,0.3,13,0.2,19.5c0,1-1.3,2.4-2.4,2.8
		c-1.1,0.5-2.6,0.2-4,0.2c-59.7,0-119.4,0-179,0c-7,0-7,0-7-6.9c0-5.2,0.3-10.4-0.1-15.5c-0.3-4.3,1-5.7,5.6-5.7
		C241.7,300,271.9,299.9,302.1,299.9z"/>
	<path class="st8" d="M398.2,162.7c0,7.2-0.3,14.3,0,21.5c0.2,4.3-1.1,5.8-5.6,5.7c-15-0.3-30-0.1-45-0.1
		c-45.2,0-90.4-0.1-135.5,0.1c-4.8,0-6.5-1.3-6.1-6.1c0.4-5.3,0.3-10.7,0-16c-0.2-4,1.2-5.1,5.1-5.1c24.3,0.2,48.7,0.1,73,0.1
		C322.1,162.8,360.2,162.8,398.2,162.7C398.2,162.7,398.2,162.7,398.2,162.7z"/>
</g>
</svg>
