<?xml version="1.0" encoding="utf-8"?>
<!-- Generator: Adobe Illustrator 24.3.0, SVG Export Plug-In . SVG Version: 6.00 Build 0)  -->
<svg version="1.1" id="Capa_1" xmlns="http://www.w3.org/2000/svg" xmlns:xlink="http://www.w3.org/1999/xlink" x="0px" y="0px"
	 viewBox="0 0 600 600" style="enable-background:new 0 0 600 600;" xml:space="preserve">
<style type="text/css">
	.st0{fill:#22C55E;}
	.st1{fill:#0D6EFD;}
	.st2{fill:#EF4444;}
</style>
<g>
	<path class="st0" d="M248.2,599.7c-1-6.9-2.2-13.4-2.9-19.9c-2.9-25,1-49.1,10.4-72.4c14.1-35.3,13.4-70.6-1.3-105.6
		c-1.5-3.7-3.5-7.2-5.4-10.7c-6-10.9,1.2-24,13.6-24.1c4.8,0,6.1-1.6,5.8-6.1c-0.3-7,0.1-14-0.3-21c-0.1-2.1-1.4-4.7-3.1-6
		c-22.2-17.1-31.7-39.2-26.9-67.1c3.2-18.6,9.4-36,18.8-52.4c18.5-32.2,31-66.7,37.6-103.3c0.3-1.4,0.8-2.8,1.8-4.2
		c0,46.2,0,92.4,0,139c2.4,0,4.5,0,7.1,0c0-46.4,0-92.6,0-138.9c0.2,0,0.3,0,0.5,0c3,12.4,5.8,24.8,9.2,37.1
		c7.1,25,17.3,48.6,30.2,71.1c10.1,17.4,16.5,36.1,19,56c3.1,25.6-6.3,46.4-26.8,61.9c-2.8,2.1-4.1,4.2-4,7.8
		c0.3,6.8,0.2,13.7,0,20.5c-0.1,4,0.9,5.5,5.3,5.6c12.8,0,20.1,12.8,14.1,24.1c-20,37.7-22.2,76.6-6.6,116.3
		c11.5,29.2,14.3,59,7.4,89.7c-0.3,1.3-0.8,2.5-1.1,3.8 M325.3,338.6c-8.6,1-16.9,2.8-25.3,2.8c-8.4,0-16.7-1.7-25.3-2.7
		c0,9,0,18.4,0,27.9c17.1,0,33.8,0,50.6,0C325.3,356.9,325.3,347.6,325.3,338.6z"/>
</g>
<g>
	<path class="st1" d="M430,600c0.2-2.3,0.4-4.6,0.4-7c0-63.5,0.4-127-0.2-190.5c-0.2-21.5,2.4-42.4,6.8-63.3
		c16.2-76.2,31.9-152.6,47.8-228.9c0.3-1.4,0.7-2.9,1.4-5.7c0.8,2.8,1.3,4.2,1.6,5.7c17.6,85.7,35.1,171.3,52.7,257
		c0.5,2.6,0.6,5.3,0.6,7.9c0,72.3-0.1,144.7-0.2,217c0,2,0,4,0,6.8c5.2,0,10.1,0,15.1,0c-1.3,0.3-2.7,1-4,1
		C511.3,600,470.7,600,430,600z M515.1,367.2c0.4,0.9,0.6,1.3,0.8,1.8c2.4,6.1,7.2,8.8,12.9,7.2c5.9-1.6,7.8-5.5,6.4-12.4
		c-2.5-12.2-4.9-24.5-7.3-36.7c-7.1-35.3-14.3-70.5-21.2-105.8c-0.7-3.7-2.2-4.9-5.9-4.8c-9.8,0.3-19.7,0.3-29.5,0.2
		c-3.4,0-4.5,1.2-5.2,4.4c-9.7,47.7-19.4,95.3-29.2,143c-1.2,5.8,0.3,9.3,5.1,11.5c4.8,2.2,10.8,0.6,13.8-3.8
		c0.9-1.3,1.6-2.8,2.4-4.2C473.8,380.9,495.2,383.9,515.1,367.2z"/>
</g>
<g>
	<path class="st2" d="M38,600c10.1,0,20.3,0,30.8,0c-1.1-7-2.3-13.5-3-20c-3.1-27.1,1.1-53.1,11.7-78.2c0.9-2.1,0.8-5.2,0-7.3
		c-4.8-11.9-5.1-23.7-0.1-35.5c1.1-2.6,1.1-4.3-0.7-6.6c-6-7.9-7.5-16.8-5.4-26.5c5.9-27.8,11.6-55.7,17.6-83.6
		c1-4.8,0.3-7.8-3.9-11c-31.2-23.7-39.3-68.1-18.2-101.3c23-36.2,38.8-75.4,49.2-116.8c0.9-3.7,1.8-7.4,2.9-12.4
		c0.8,2.1,1.2,3,1.4,3.9c9,40.1,23.6,78,44,113.7c4,7.1,8.9,13.8,12.2,21.1C191,272,181.3,310,153,331.5c-3.8,2.9-4.8,5.7-3.8,10.1
		c5.9,27.7,11.5,55.4,17.5,83.1c2.3,10.4,0.8,19.7-5.5,28.4c-0.9,1.3-1.1,3.8-0.5,5.2c5.1,12.4,5,24.6-0.4,36.9
		c-0.7,1.6-0.8,3.9-0.1,5.5c14.1,35,16.4,60.2,9,98.6c1.2,0.5,2.5,1.1,3.8,1.7c-43.7,0-87.3,0-131,0C40.7,601,39.3,600.3,38,600z
		 M77.1,424.8c28.3,0,56,0,84.1,0c-5.7-27.9-11.2-55.3-17-82.6c-0.2-1.1-2.5-2.5-3.9-2.5c-14.5,0-29,0.1-43.5,0.5
		c-1.2,0-3.3,1.6-3.5,2.8C87.8,370,82.5,397.2,77.1,424.8z M118.5,495.9c10.7,0,21.3,0.1,32-0.1c1.8-0.1,4.5-1.5,5.3-3.1
		c5.4-10.6,5.4-21.5,0.1-32.1c-0.8-1.6-3.4-3.2-5.2-3.3c-21.3-0.2-42.6-0.2-63.9,0c-1.8,0-4.3,1.7-5.1,3.3
		c-5.2,10.5-4.9,21.2-0.3,31.8c1.1,2.6,2.7,3.6,5.7,3.6C97.5,495.8,108,495.9,118.5,495.9z"/>
</g>
</svg>
