<?xml version="1.0" encoding="utf-8"?>
<!-- Generator: Adobe Illustrator 24.3.0, SVG Export Plug-In . SVG Version: 6.00 Build 0)  -->
<svg version="1.1" id="Capa_1" xmlns="http://www.w3.org/2000/svg" xmlns:xlink="http://www.w3.org/1999/xlink" x="0px" y="0px"
	 viewBox="0 0 600 600" style="enable-background:new 0 0 600 600;" xml:space="preserve">
<style type="text/css">
	.st0{fill:#EF4444;}
</style>
<g>
	<path class="st0" d="M132,450.7c-34.8-18.5-68.6-36.5-102.3-54.5c9.6-17.6,22-21.6,39.7-17.7c28.8,6.3,58,10.5,87.1,15
		c4.5,0.7,11.1-0.8,14-3.9c37.8-40.5,75.2-81.5,112.6-122.4c1.3-1.5,2.6-3,6.3-7.3c-23.4-19.6-45-41.4-70.1-57.9
		c-45.5-29.9-93.1-56.7-139.8-84.8c-5.5-3.3-10.9-6.8-16.4-10.3c14.8-19,24.4-22.5,45.1-16.6c24,6.8,47.9,14.3,72.1,20.3
		c5.4,1.3,13.1-0.9,17.8-4.2c10.6-7.4,19.9-16.6,30-24.8c12.4-10.1,17.4,2.8,24.4,8.5c6.8,5.5,10.8,11.9,3.6,20.4
		c-4.5,5.3-8.5,11-14,18.2c17.5,5.1,33.5,10.3,49.9,14.2c3,0.7,7.7-3.1,10.9-5.7c10.1-8.2,19.8-16.9,29.7-25.2
		c9.6-8.1,15.4-0.6,21.3,5.5c6,6.3,15.3,11.6,7.3,22.4c-4.1,5.6-8.2,11.2-12.3,16.9c21.9,14.2,30.9,13.6,47.6-3.1
		c28.7-28.6,57.2-57.4,86-85.9C499.1,51.4,517,37,540.2,31.3c22.2-5.5,36.2,7.5,27.6,28.7c-7.7,19-18.8,37.7-32.5,52.9
		c-27,30.1-56.7,57.8-85.4,86.4c-21.8,21.7-21.9,21.6-7.9,51.9c2.8-1.9,5.6-3.7,8.3-5.7c17.8-13.6,28-11.7,38.7,8.2
		c1.8,3.3,0.9,9.9-1.3,13.1c-6.2,9-12.6,18.5-21,25.3c-10.6,8.6-10.8,17.3-6.6,28.7c4.2,11.5,7.3,23.5,11.2,36.4
		c5.1-3.8,8.9-6.2,12.1-9.3c11-10.6,19.5-9,30,2.3c9.1,9.8,10.5,17.1,1.3,26.6c-3.1,3.2-5,7.9-8.6,10.4
		c-21.1,14.7-20.2,32.9-11.5,54.4c6.2,15.2,7.8,32.2,14.1,47.3c8.7,20.5,0.2,34.2-14.8,48.9c-3.3-5-6.4-9.2-9.1-13.7
		C458,479.4,432.5,434,404,390.6c-18.4-28.1-41.2-53.3-63.3-81.4c-7.5,7.1-11.6,11.1-15.8,15c-38,34.7-76.1,69.3-113.7,104.4
		c-3.2,3-5.7,9.2-5.1,13.4c4.6,30.6,9.3,61.3,15.7,91.6c3.7,17.3-3.1,27.3-18.3,36.4c-18.3-34.3-36.4-68-54.7-102.4
		c-12.8,8.5-24.9,16.5-37,24.6c-1.4-1.3-2.8-2.6-4.2-3.9C115.4,476.2,123.3,464.1,132,450.7z"/>
</g>
</svg>
