<?xml version="1.0" encoding="utf-8"?>
<!-- Generator: Adobe Illustrator 24.3.0, SVG Export Plug-In . SVG Version: 6.00 Build 0)  -->
<svg version="1.1" id="Capa_1" xmlns="http://www.w3.org/2000/svg" xmlns:xlink="http://www.w3.org/1999/xlink" x="0px" y="0px"
	 viewBox="0 0 500 500" style="enable-background:new 0 0 500 500;" xml:space="preserve">
<style type="text/css">
	.st0{fill:#2CB0C6;}
</style>
<g>
	<g>
		<path class="st0" d="M17,394.3c0.8-1.7,1.3-2.9,1.9-4C65.6,296.9,112.3,203.4,159,110c1.4-2.7,2.8-3.7,5.9-3.7
			c43.9-0.1,87.9-0.5,131.8-0.6c60.5-0.1,121,0,181.5,0c1.4,0,2.8,0,4.8,0c-0.7,1.5-1.2,2.7-1.7,3.8c-10.9,21.8-21.8,43.5-32.6,65.3
			c-1.3,2.5-2.7,3.3-5.4,3.3c-45.1-0.1-90.1-0.1-135.2-0.1c-1.5,0-3,0-4.7,0c0,12,0,23.6,0,35.6c47.8,0,95.6,0,143.5,0
			c0,24.2,0,48,0,72.3c-41.2,0-82.4,0-124.2,0c18.2,36.4,36,72.1,54.1,108.2c-1.4,0.1-2.4,0.2-3.4,0.2c-27.8,0-55.6,0-83.5,0.1
			c-2.4,0-3.6-0.7-4.6-2.8c-4.8-9.9-9.9-19.7-14.7-29.7c-1.3-2.6-2.7-3.6-5.7-3.5c-39.1,0.1-78.2,0.1-117.3,0.1c-1.4,0-2.8,0-4.6,0
			c0.7-1.5,1-2.5,1.5-3.4c11-22,22-43.9,32.9-66c1.1-2.3,2.4-3,4.9-3c15.3,0.1,30.7,0.1,46,0.1c1.3,0,2.5,0,4.4,0
			c-12-23.9-23.7-47.3-35.7-71.3c-0.9,1.7-1.6,2.9-2.2,4.1c-28.6,57.2-57.2,114.4-85.8,171.7c-1.3,2.7-2.8,3.8-5.9,3.7
			c-27.3-0.1-54.7-0.1-82-0.1C20,394.3,18.8,394.3,17,394.3z"/>
	</g>
</g>
</svg>
