<?xml version="1.0" encoding="utf-8"?>
<!-- Generator: Adobe Illustrator 24.3.0, SVG Export Plug-In . SVG Version: 6.00 Build 0)  -->
<svg version="1.1" id="Capa_1" xmlns="http://www.w3.org/2000/svg" xmlns:xlink="http://www.w3.org/1999/xlink" x="0px" y="0px"
	 viewBox="0 0 1920 686" style="enable-background:new 0 0 1920 686;" xml:space="preserve">
<style type="text/css">
	.st0{fill:#FFFFFF;}
</style>
<g>
	<g>
		<g>
			<g>
				<g>
					<path class="st0" d="M209.9,325v-93.2c0-14,11.4-25.4,25.4-25.4h8.6c14,0,25.4,11.4,25.4,25.4v92c0,30.5,15.4,45,38.9,45
						c23.5,0,38.9-13.9,38.9-43.5V129.5c0-14,11.4-25.4,25.4-25.4h8.6c14,0,25.4,11.4,25.4,25.4v194c0,68.2-38.9,98.1-99,98.1
						S209.9,391.1,209.9,325z"/>
				</g>
				<g>
					<path class="st0" d="M72.1,403v-93.2c0-14,11.4-25.4,25.4-25.4h8.6c14,0,25.4,11.4,25.4,25.4v92c0,30.5,15.4,45,38.9,45
						s38.9-13.9,38.9-43.5V207.4c0-14,11.4-25.4,25.4-25.4h8.6c14,0,25.4,11.4,25.4,25.4v194c0,68.2-38.9,98.1-99,98.1
						S72.1,469.1,72.1,403z"/>
				</g>
				<g>
					<path class="st0" d="M376.2,54.4c11.5,12.7,22.8,25.1,34,37.5c7.6,8.4,15.3,16.9,22.9,25.3c3.9,4.4,4.3,8.8,1.3,12.6
						c-3.1,3.9-7.4,4.5-12.6,1.7c-13.8-7.5-27.7-14.9-41.4-22.7c-3.4-2-5.9-1.7-9.1,0.1c-13.3,7.5-26.7,14.8-40.1,22
						c-5.9,3.2-11.5,1.9-13.5-3.6c-0.9-2.6-0.8-6.9,0.8-8.8C337.5,97.1,356.8,75.9,376.2,54.4z"/>
				</g>
			</g>
		</g>
		<g>
			<path class="st0" d="M697.8,496.7c-11.2,0-21.8-2.7-31.9-8c-9.3-4.8-17.7-11.4-25.1-19.9c-1.3-1.3-2.5-2.7-3.6-4.2
				c-1.1-1.5-2.1-3-3.2-4.6c-2.1,3.2-4.3,6.1-6.4,8.8c-7.4,8.5-15.8,15.2-25.1,19.9c-10.6,5.3-21.4,8-32.3,8
				c-10.6,0-21.3-2.7-31.9-8c-9.3-4.8-17.7-11.4-25.1-19.9c-7.2-8.5-12.7-18.2-16.6-29.1c-3.9-10.9-5.8-22.3-5.8-34.3v-0.4v-91.4
				c0-4.5,1.5-8.3,4.6-11.4c3.1-3.1,6.8-4.6,11.4-4.6c4.5,0,8.3,1.5,11.4,4.6c3.1,3.1,4.6,6.9,4.6,11.4v91.4
				c0,8.2,1.3,16.1,3.8,23.5c2.5,7.4,6.2,14,11,19.5c4.5,5.3,9.6,9.4,15.2,12.4c5.6,2.9,11.4,4.4,17.6,4.4
				c12.5,0,23.5-5.6,33.1-16.8c4.8-5.6,8.4-12.1,11-19.5c2.5-7.4,3.8-15.3,3.8-23.5v-91.4c0-4.5,1.5-8.3,4.6-11.4
				c3.1-3.1,6.8-4.6,11.4-4.6c4.5,0,8.3,1.5,11.4,4.6c3.1,3.1,4.6,6.9,4.6,11.4v91.4c0,8.2,1.3,16.1,4,23.5
				c2.7,7.4,6.4,14,11.2,19.5c4.5,5.3,9.6,9.4,15.2,12.4c5.6,2.9,11.4,4.4,17.6,4.4c12.5,0,23.5-5.6,33.1-16.8
				c4.8-5.6,8.4-12.1,11-19.5c2.5-7.4,3.8-15.3,3.8-23.5v-91.4c0-4.5,1.5-8.3,4.6-11.4c3.1-3.1,6.8-4.6,11.4-4.6
				c4.5,0,8.3,1.5,11.4,4.6c3.1,3.1,4.6,6.9,4.6,11.4v91.4v0.4c0,12-1.9,23.4-5.8,34.3c-3.9,10.9-9.4,20.6-16.6,29.1
				c-7.2,8.5-15.7,15.2-25.5,19.9C719.6,494,708.9,496.7,697.8,496.7z"/>
			<path class="st0" d="M971.8,497.1c-4.5,0-8.3-1.5-11.4-4.6c-3.1-3.1-4.6-6.8-4.6-11.4V472c-9.3,8.2-19.6,14.5-30.9,18.7
				c-11.3,4.3-23.2,6.4-35.7,6.4c-13.3,0-25.9-2.4-37.9-7.2s-22.6-11.7-31.9-20.7c-9.3-9.3-16.5-19.8-21.5-31.5
				c-5.1-11.7-7.6-24.1-7.6-37.1c0-13,2.5-25.4,7.6-37.1c5-11.7,12.2-22.2,21.5-31.5c9.3-9.3,19.9-16.4,31.9-21.1s24.6-7.2,37.9-7.2
				c13.3,0,25.9,2.4,37.9,7.2s22.6,11.8,31.9,21.1c9.3,9.3,16.5,19.8,21.5,31.5c5,11.7,7.6,24.1,7.6,37.1c0,1.3-0.1,2.7-0.2,4.2
				c-0.1,1.5-0.2,3-0.2,4.6v71.8c0,4.5-1.5,8.3-4.6,11.4C980.1,495.6,976.3,497.1,971.8,497.1z M889.2,335.5c-9.3,0-18,1.7-26.1,5.2
				c-8.1,3.5-15.2,8.1-21.1,14c-6,5.9-10.8,12.7-14.4,20.5c-3.6,7.8-5.4,16.3-5.4,25.3c0,8.8,1.8,17.1,5.4,24.9
				c3.6,7.8,8.4,14.7,14.4,20.5c6,5.9,13,10.5,21.1,14c8.1,3.5,16.8,5.2,26.1,5.2c8.5,0,16.6-1.5,24.3-4.4c7.7-2.9,14.6-7,20.5-12.2
				s10.9-11.3,14.8-18.3c3.9-7,6.2-14.6,7-22.5v-13.6v-0.8c-0.8-8-3.1-15.5-7-22.5c-3.9-7-8.8-13.2-14.8-18.4
				c-6-5.2-12.8-9.3-20.5-12.4C905.9,337.1,897.8,335.5,889.2,335.5z"/>
			<path class="st0" d="M1087.9,496.7c-12,0-23.2-2.2-33.7-6.6c-10.5-4.4-19.9-10.7-28-18.9c-8.1-8.2-14.4-17.6-18.7-28.1
				c-4.3-10.5-6.5-21.7-6.5-33.7V217.5c0-4.5,1.6-8.4,4.7-11.6c3.2-3.2,7-4.8,11.4-4.8c4.5,0,8.2,1.6,11.2,4.8
				c3,3.2,4.5,7.1,4.5,11.6v192.2c0,7.7,1.5,14.9,4.4,21.6c2.9,6.7,6.8,12.5,11.8,17.4c4.9,4.9,10.7,8.9,17.4,11.8
				c6.6,2.9,13.8,4.4,21.5,4.4c4.5,0,8.3,1.5,11.4,4.5c3.1,3,4.6,6.8,4.6,11.2c0,4.5-1.5,8.3-4.6,11.4
				C1096.2,495.1,1092.4,496.7,1087.9,496.7z"/>
			<path class="st0" d="M1204,496.7c-12,0-23.2-2.2-33.7-6.6c-10.5-4.4-19.9-10.7-28-18.9c-8.1-8.2-14.4-17.6-18.7-28.1
				c-4.3-10.5-6.5-21.7-6.5-33.7V217.5c0-4.5,1.6-8.4,4.7-11.6c3.2-3.2,7-4.8,11.4-4.8c4.5,0,8.2,1.6,11.2,4.8
				c3,3.2,4.5,7.1,4.5,11.6v192.2c0,7.7,1.5,14.9,4.4,21.6c2.9,6.7,6.8,12.5,11.8,17.4c4.9,4.9,10.7,8.9,17.4,11.8
				c6.6,2.9,13.8,4.4,21.5,4.4c4.5,0,8.3,1.5,11.4,4.5c3.1,3,4.6,6.8,4.6,11.2c0,4.5-1.5,8.3-4.6,11.4
				C1212.3,495.1,1208.5,496.7,1204,496.7z"/>
			<path class="st0" d="M1330.4,493.9c-12.8,0-24.9-2.3-36.3-7c-11.4-4.6-21.7-11.3-30.7-20.1c-9.3-9-16.6-19.3-21.7-30.9
				c-5.2-11.5-7.9-23.8-8.2-36.8c-0.3-13,1.9-25.4,6.6-37.2c4.7-11.8,11.5-22.4,20.5-31.7c8.8-9.3,19-16.4,30.7-21.5
				c11.7-5,24.1-7.8,37.1-8.4c12.8-0.3,25.1,1.9,37.1,6.6c12,4.6,22.6,11.5,31.9,20.5l0.4,0.4c2.9,3.5,4.4,7.2,4.4,11.1
				c0,4-1.5,7.7-4.4,11.2l-98.9,103.1c6.1,3.5,12.6,5.8,19.5,7.2c6.9,1.3,13.8,1.5,20.7,0.4c6.9-1.1,13.6-3.2,19.9-6.4
				c6.4-3.2,12.2-7.4,17.6-12.7c3.2-3.2,7-4.8,11.6-5c4.5-0.1,8.4,1.3,11.6,4.2c3.2,3.2,4.8,7,4.8,11.5s-1.5,8.4-4.4,11.5
				c-9,9.3-19.3,16.5-30.9,21.5c-11.6,5-23.9,7.7-36.9,8c-0.5,0-0.9,0.1-1.2,0.2C1331,493.8,1330.7,493.9,1330.4,493.9z
				 M1330.4,332.3c-8.5,0-16.8,1.7-24.9,5c-8.1,3.3-15.4,8.3-21.7,15c-5.3,5.3-9.4,11.3-12.4,18c-2.9,6.7-4.7,13.4-5.4,20.3
				c-0.7,6.9-0.2,13.8,1.4,20.7c1.6,6.9,4.3,13.4,8,19.5l86.6-90.2C1351.8,335.1,1341.3,332.3,1330.4,332.3z"/>
			<path class="st0" d="M1504.8,496.7c-11.7,0-22.8-2.2-33.3-6.6c-10.5-4.4-19.9-10.7-28.1-18.9c-8.2-8.2-14.6-17.6-18.9-27.9
				c-4.4-10.4-6.6-21.4-6.6-33.1V218.3c0-4.5,1.5-8.3,4.6-11.4c3.1-3.1,6.8-4.6,11.4-4.6c4.5,0,8.3,1.5,11.4,4.6
				c3.1,3.1,4.6,6.9,4.6,11.4v102.1h55c4.5,0,8.3,1.5,11.4,4.6c3.1,3.1,4.6,6.9,4.6,11.4c0,4.5-1.5,8.3-4.6,11.4
				c-3.1,3.1-6.9,4.6-11.4,4.6h-55v57.8c0,7.4,1.5,14.5,4.4,21.1c2.9,6.7,6.8,12.4,11.8,17.4c4.9,4.9,10.7,8.8,17.4,11.8
				c6.6,2.9,13.8,4.4,21.5,4.4c4.5,0,8.3,1.5,11.4,4.6c3.1,3.1,4.6,6.9,4.6,11.4c0,4.5-1.5,8.3-4.6,11.4
				C1513.1,495.2,1509.3,496.7,1504.8,496.7z"/>
			<path class="st0" d="M1549.4,494.3c-4.5,0-8.3-1.5-11.4-4.6c-3.1-3.1-4.6-6.8-4.6-11.4V286.1v-2c0-11.4,2.1-22.1,6.4-32.1
				c4.2-10,10.1-18.7,17.6-26.1c7.4-7.4,16.2-13.3,26.1-17.6c10-4.3,20.7-6.4,32.1-6.4c4.5,0,8.3,1.5,11.4,4.6
				c3.1,3.1,4.6,6.9,4.6,11.4c0,4.5-1.5,8.3-4.6,11.4c-3.1,3.1-6.9,4.6-11.4,4.6c-6.7,0-13,1.3-18.9,3.8c-6,2.5-11.2,5.9-15.8,10.2
				c-4.5,4.3-8.2,9.3-11,15.2c-2.8,5.9-4.3,12.1-4.6,18.7v1.2V304h50.3c4.5,0,8.3,1.5,11.4,4.6c3.1,3.1,4.6,6.9,4.6,11.4
				c0,4.5-1.5,8.3-4.6,11.4c-3.1,3.1-6.9,4.6-11.4,4.6h-50.3v142.4c0,4.5-1.5,8.3-4.6,11.4C1557.7,492.8,1553.9,494.3,1549.4,494.3z
				"/>
			<path class="st0" d="M1808.7,493.5c-4.5,0-8.3-1.5-11.4-4.6c-3.1-3.1-4.6-6.8-4.6-11.4v-5.2c-8.2,6.9-17.3,12.2-27.1,15.8
				c-9.8,3.6-20.2,5.4-31.1,5.4c-12,0-23.5-2.3-34.5-6.8c-11-4.5-20.8-11-29.3-19.5c-8.5-8.5-15-18.3-19.5-29.3
				c-4.5-11-6.8-22.5-6.8-34.5V314c0-4.5,1.5-8.3,4.6-11.4c3.1-3.1,6.8-4.6,11.4-4.6c4.5,0,8.3,1.5,11.4,4.6
				c3.1,3.1,4.6,6.9,4.6,11.4v89.4c0,8,1.5,15.6,4.6,22.7c3.1,7.2,7.2,13.4,12.6,18.5c5.3,5.2,11.5,9.3,18.5,12.4
				c7,3.1,14.6,4.6,22.5,4.6c8,0,15.6-1.5,22.7-4.6c7.2-3.1,13.4-7.2,18.5-12.4s9.3-11.4,12.4-18.5c3.1-7.2,4.6-14.8,4.6-22.7v-89
				c0-4.5,1.5-8.3,4.6-11.4c3.1-3.1,6.8-4.6,11.4-4.6c4.5,0,8.3,1.5,11.4,4.6c3.1,3.1,4.6,6.9,4.6,11.4v163.2
				c0,4.5-1.5,8.3-4.6,11.4C1817,492,1813.2,493.5,1808.7,493.5z M1734.5,653.9c-12,0-23.5-2.3-34.5-6.8c-11-4.5-20.8-11-29.3-19.5
				c-8.5-8.5-15-18.2-19.5-29.1c-4.5-10.9-6.8-22.5-6.8-34.7c0-4.5,1.5-8.3,4.6-11.4c3.1-3.1,6.8-4.6,11.4-4.6
				c4.5,0,8.3,1.5,11.4,4.6c3.1,3.1,4.6,6.8,4.6,11.4c0,8,1.5,15.6,4.6,22.7c3.1,7.2,7.2,13.4,12.6,18.5c5.3,5.2,11.5,9.3,18.5,12.4
				c7,3.1,14.6,4.6,22.5,4.6c8,0,15.6-1.5,22.7-4.6c7.2-3.1,13.4-7.2,18.5-12.4c5.2-5.2,9.3-11.4,12.4-18.5
				c3.1-7.2,4.6-14.8,4.6-22.7c0-4.5,1.5-8.3,4.6-11.4c3.1-3.1,6.8-4.6,11.4-4.6c4.5,0,8.3,1.5,11.4,4.6c3.1,3.1,4.6,6.8,4.6,11.4
				c0,25-8.8,46.3-26.3,63.8c-8.5,8.5-18.3,15-29.3,19.5C1758,651.6,1746.5,653.9,1734.5,653.9z"/>
		</g>
	</g>
</g>
</svg>
